<mxfile host="app.diagrams.net" modified="2023-07-23T17:39:13.978Z" agent="Mozilla/5.0 (Windows NT 10.0; Win64; x64) AppleWebKit/537.36 (KHTML, like Gecko) Chrome/114.0.0.0 Safari/537.36" etag="bbrR1V9VECN4TmhK8pVq" version="21.6.5" type="github">
  <diagram id="M9qUrMhlP8mFwhmVaTm_" name="Page-1">
    <mxGraphModel dx="1389" dy="1327" grid="1" gridSize="10" guides="1" tooltips="1" connect="1" arrows="1" fold="1" page="0" pageScale="1" pageWidth="850" pageHeight="1100" background="none" math="0" shadow="0">
      <root>
        <mxCell id="0" />
        <mxCell id="1" parent="0" />
        <mxCell id="1mzf_8XrOfBWv2a91a7L-6" value="Початок програми , аскі-арт hangman" style="ellipse;whiteSpace=wrap;html=1;" parent="1" vertex="1">
          <mxGeometry x="275" y="-190" width="230" height="80" as="geometry" />
        </mxCell>
        <mxCell id="1mzf_8XrOfBWv2a91a7L-11" value="" style="edgeStyle=orthogonalEdgeStyle;rounded=0;orthogonalLoop=1;jettySize=auto;html=1;exitX=0.5;exitY=1;exitDx=0;exitDy=0;" parent="1" source="1mzf_8XrOfBWv2a91a7L-6" target="1mzf_8XrOfBWv2a91a7L-10" edge="1">
          <mxGeometry relative="1" as="geometry">
            <mxPoint x="390" y="-120" as="sourcePoint" />
          </mxGeometry>
        </mxCell>
        <mxCell id="1mzf_8XrOfBWv2a91a7L-16" value="" style="edgeStyle=orthogonalEdgeStyle;rounded=0;orthogonalLoop=1;jettySize=auto;html=1;" parent="1" source="1mzf_8XrOfBWv2a91a7L-10" target="1mzf_8XrOfBWv2a91a7L-15" edge="1">
          <mxGeometry relative="1" as="geometry">
            <Array as="points">
              <mxPoint x="195" y="-5" />
            </Array>
          </mxGeometry>
        </mxCell>
        <mxCell id="1mzf_8XrOfBWv2a91a7L-138" value="Самостійно" style="edgeLabel;html=1;align=center;verticalAlign=middle;resizable=0;points=[];" parent="1mzf_8XrOfBWv2a91a7L-16" vertex="1" connectable="0">
          <mxGeometry x="0.1129" y="-1" relative="1" as="geometry">
            <mxPoint as="offset" />
          </mxGeometry>
        </mxCell>
        <mxCell id="1mzf_8XrOfBWv2a91a7L-43" value="" style="edgeStyle=orthogonalEdgeStyle;rounded=0;orthogonalLoop=1;jettySize=auto;html=1;" parent="1" source="1mzf_8XrOfBWv2a91a7L-10" target="1mzf_8XrOfBWv2a91a7L-17" edge="1">
          <mxGeometry relative="1" as="geometry" />
        </mxCell>
        <mxCell id="1mzf_8XrOfBWv2a91a7L-112" value="авто" style="edgeLabel;html=1;align=center;verticalAlign=middle;resizable=0;points=[];" parent="1mzf_8XrOfBWv2a91a7L-43" vertex="1" connectable="0">
          <mxGeometry x="-0.3346" y="-3" relative="1" as="geometry">
            <mxPoint as="offset" />
          </mxGeometry>
        </mxCell>
        <mxCell id="1mzf_8XrOfBWv2a91a7L-10" value="Запит користувача - хочете обрати слово самостійно, чи згенерувати автоматично?" style="rhombus;whiteSpace=wrap;html=1;" parent="1" vertex="1">
          <mxGeometry x="270" y="-80" width="240" height="150" as="geometry" />
        </mxCell>
        <mxCell id="1mzf_8XrOfBWv2a91a7L-131" style="edgeStyle=orthogonalEdgeStyle;rounded=0;orthogonalLoop=1;jettySize=auto;html=1;entryX=0;entryY=0.5;entryDx=0;entryDy=0;" parent="1" source="1mzf_8XrOfBWv2a91a7L-15" target="1mzf_8XrOfBWv2a91a7L-128" edge="1">
          <mxGeometry relative="1" as="geometry" />
        </mxCell>
        <mxCell id="1mzf_8XrOfBWv2a91a7L-15" value="запит на слово від користувача" style="shape=parallelogram;perimeter=parallelogramPerimeter;whiteSpace=wrap;html=1;fixedSize=1;" parent="1" vertex="1">
          <mxGeometry x="115" y="80" width="160" height="60" as="geometry" />
        </mxCell>
        <mxCell id="1mzf_8XrOfBWv2a91a7L-20" value="" style="edgeStyle=orthogonalEdgeStyle;rounded=0;orthogonalLoop=1;jettySize=auto;html=1;" parent="1" source="1mzf_8XrOfBWv2a91a7L-17" target="1mzf_8XrOfBWv2a91a7L-19" edge="1">
          <mxGeometry relative="1" as="geometry" />
        </mxCell>
        <mxCell id="1mzf_8XrOfBWv2a91a7L-17" value="Згенерувати автоматично" style="shape=parallelogram;perimeter=parallelogramPerimeter;whiteSpace=wrap;html=1;fixedSize=1;" parent="1" vertex="1">
          <mxGeometry x="640" y="-35" width="120" height="60" as="geometry" />
        </mxCell>
        <mxCell id="1mzf_8XrOfBWv2a91a7L-22" value="" style="edgeStyle=orthogonalEdgeStyle;rounded=0;orthogonalLoop=1;jettySize=auto;html=1;" parent="1" source="1mzf_8XrOfBWv2a91a7L-19" target="1mzf_8XrOfBWv2a91a7L-21" edge="1">
          <mxGeometry relative="1" as="geometry" />
        </mxCell>
        <mxCell id="1mzf_8XrOfBWv2a91a7L-19" value="модуль random генерує слово, друкує шаблон hangman та приховані літери&amp;nbsp;" style="rounded=0;whiteSpace=wrap;html=1;" parent="1" vertex="1">
          <mxGeometry x="620" y="80" width="160" height="70" as="geometry" />
        </mxCell>
        <mxCell id="1mzf_8XrOfBWv2a91a7L-50" value="" style="edgeStyle=orthogonalEdgeStyle;rounded=0;orthogonalLoop=1;jettySize=auto;html=1;" parent="1" source="1mzf_8XrOfBWv2a91a7L-21" target="1mzf_8XrOfBWv2a91a7L-49" edge="1">
          <mxGeometry relative="1" as="geometry" />
        </mxCell>
        <mxCell id="1mzf_8XrOfBWv2a91a7L-21" value="Початок гри, друкуються пусті слоти під букви" style="rounded=1;whiteSpace=wrap;html=1;" parent="1" vertex="1">
          <mxGeometry x="640" y="170" width="120" height="60" as="geometry" />
        </mxCell>
        <mxCell id="1mzf_8XrOfBWv2a91a7L-29" value="" style="edgeStyle=orthogonalEdgeStyle;rounded=0;orthogonalLoop=1;jettySize=auto;html=1;" parent="1" source="1mzf_8XrOfBWv2a91a7L-23" target="1mzf_8XrOfBWv2a91a7L-28" edge="1">
          <mxGeometry relative="1" as="geometry" />
        </mxCell>
        <mxCell id="1mzf_8XrOfBWv2a91a7L-30" value="Так" style="edgeLabel;html=1;align=center;verticalAlign=middle;resizable=0;points=[];" parent="1mzf_8XrOfBWv2a91a7L-29" vertex="1" connectable="0">
          <mxGeometry x="-0.1253" y="-2" relative="1" as="geometry">
            <mxPoint as="offset" />
          </mxGeometry>
        </mxCell>
        <mxCell id="1mzf_8XrOfBWv2a91a7L-32" value="" style="edgeStyle=orthogonalEdgeStyle;rounded=0;orthogonalLoop=1;jettySize=auto;html=1;" parent="1" source="1mzf_8XrOfBWv2a91a7L-23" target="1mzf_8XrOfBWv2a91a7L-31" edge="1">
          <mxGeometry relative="1" as="geometry" />
        </mxCell>
        <mxCell id="1mzf_8XrOfBWv2a91a7L-33" value="Ні" style="edgeLabel;html=1;align=center;verticalAlign=middle;resizable=0;points=[];" parent="1mzf_8XrOfBWv2a91a7L-32" vertex="1" connectable="0">
          <mxGeometry x="-0.1738" relative="1" as="geometry">
            <mxPoint as="offset" />
          </mxGeometry>
        </mxCell>
        <mxCell id="1mzf_8XrOfBWv2a91a7L-23" value="Буква є в слові?" style="rhombus;whiteSpace=wrap;html=1;" parent="1" vertex="1">
          <mxGeometry x="400" y="942.1099999999999" width="300" height="110" as="geometry" />
        </mxCell>
        <mxCell id="1mzf_8XrOfBWv2a91a7L-134" style="edgeStyle=orthogonalEdgeStyle;rounded=0;orthogonalLoop=1;jettySize=auto;html=1;entryX=0.5;entryY=0;entryDx=0;entryDy=0;" parent="1" source="1mzf_8XrOfBWv2a91a7L-25" target="1mzf_8XrOfBWv2a91a7L-133" edge="1">
          <mxGeometry relative="1" as="geometry" />
        </mxCell>
        <mxCell id="1mzf_8XrOfBWv2a91a7L-25" value="Програма запитує користувача літеру" style="rounded=0;whiteSpace=wrap;html=1;" parent="1" vertex="1">
          <mxGeometry x="470" y="585.0000000000001" width="160" height="60" as="geometry" />
        </mxCell>
        <mxCell id="1mzf_8XrOfBWv2a91a7L-105" style="edgeStyle=orthogonalEdgeStyle;rounded=0;orthogonalLoop=1;jettySize=auto;html=1;entryX=0;entryY=0.5;entryDx=0;entryDy=0;" parent="1" source="1mzf_8XrOfBWv2a91a7L-28" target="1mzf_8XrOfBWv2a91a7L-49" edge="1">
          <mxGeometry relative="1" as="geometry">
            <Array as="points">
              <mxPoint x="425" y="1045" />
              <mxPoint x="260" y="1045" />
              <mxPoint x="260" y="330" />
            </Array>
          </mxGeometry>
        </mxCell>
        <mxCell id="1mzf_8XrOfBWv2a91a7L-28" value="Буква стає на місце пропуску, життя не віднімається, друкуються використані букви&amp;nbsp;" style="rounded=0;whiteSpace=wrap;html=1;" parent="1" vertex="1">
          <mxGeometry x="330" y="1122.11" width="190" height="90" as="geometry" />
        </mxCell>
        <mxCell id="1mzf_8XrOfBWv2a91a7L-106" style="edgeStyle=orthogonalEdgeStyle;rounded=0;orthogonalLoop=1;jettySize=auto;html=1;entryX=1;entryY=0.5;entryDx=0;entryDy=0;" parent="1" source="1mzf_8XrOfBWv2a91a7L-31" target="1mzf_8XrOfBWv2a91a7L-49" edge="1">
          <mxGeometry relative="1" as="geometry">
            <Array as="points">
              <mxPoint x="655" y="1045" />
              <mxPoint x="1130" y="1045" />
              <mxPoint x="1130" y="330" />
            </Array>
          </mxGeometry>
        </mxCell>
        <mxCell id="1mzf_8XrOfBWv2a91a7L-31" value="Віднімається життя, букви і шаблон друкуються знову, друкуються використані букви" style="rounded=0;whiteSpace=wrap;html=1;" parent="1" vertex="1">
          <mxGeometry x="540" y="1122.11" width="230" height="90" as="geometry" />
        </mxCell>
        <mxCell id="1mzf_8XrOfBWv2a91a7L-100" style="edgeStyle=orthogonalEdgeStyle;rounded=0;orthogonalLoop=1;jettySize=auto;html=1;entryX=0.5;entryY=0;entryDx=0;entryDy=0;" parent="1" source="1mzf_8XrOfBWv2a91a7L-34" target="1mzf_8XrOfBWv2a91a7L-25" edge="1">
          <mxGeometry relative="1" as="geometry" />
        </mxCell>
        <mxCell id="1mzf_8XrOfBWv2a91a7L-101" value="так" style="edgeLabel;html=1;align=center;verticalAlign=middle;resizable=0;points=[];" parent="1mzf_8XrOfBWv2a91a7L-100" vertex="1" connectable="0">
          <mxGeometry x="-0.5063" y="-1" relative="1" as="geometry">
            <mxPoint as="offset" />
          </mxGeometry>
        </mxCell>
        <mxCell id="1mzf_8XrOfBWv2a91a7L-102" style="edgeStyle=orthogonalEdgeStyle;rounded=0;orthogonalLoop=1;jettySize=auto;html=1;entryX=0.25;entryY=0;entryDx=0;entryDy=0;" parent="1" source="1mzf_8XrOfBWv2a91a7L-34" target="1mzf_8XrOfBWv2a91a7L-40" edge="1">
          <mxGeometry relative="1" as="geometry" />
        </mxCell>
        <mxCell id="1mzf_8XrOfBWv2a91a7L-103" value="ні" style="edgeLabel;html=1;align=center;verticalAlign=middle;resizable=0;points=[];" parent="1mzf_8XrOfBWv2a91a7L-102" vertex="1" connectable="0">
          <mxGeometry x="-0.7333" y="2" relative="1" as="geometry">
            <mxPoint as="offset" />
          </mxGeometry>
        </mxCell>
        <mxCell id="1mzf_8XrOfBWv2a91a7L-34" value="Залишились життя?&amp;nbsp;" style="rhombus;whiteSpace=wrap;html=1;rounded=0;" parent="1" vertex="1">
          <mxGeometry x="450" y="425" width="200" height="90" as="geometry" />
        </mxCell>
        <mxCell id="1mzf_8XrOfBWv2a91a7L-40" value="Кінець гри, гравець програв Друкується загадане слово" style="rounded=1;whiteSpace=wrap;html=1;" parent="1" vertex="1">
          <mxGeometry x="740" y="609" width="150" height="90" as="geometry" />
        </mxCell>
        <mxCell id="1mzf_8XrOfBWv2a91a7L-77" style="edgeStyle=orthogonalEdgeStyle;rounded=0;orthogonalLoop=1;jettySize=auto;html=1;entryX=0.5;entryY=0;entryDx=0;entryDy=0;" parent="1" source="1mzf_8XrOfBWv2a91a7L-49" target="1mzf_8XrOfBWv2a91a7L-75" edge="1">
          <mxGeometry relative="1" as="geometry">
            <Array as="points">
              <mxPoint x="700" y="405" />
              <mxPoint x="915" y="405" />
              <mxPoint x="915" y="456" />
            </Array>
          </mxGeometry>
        </mxCell>
        <mxCell id="1mzf_8XrOfBWv2a91a7L-79" value="ні" style="edgeLabel;html=1;align=center;verticalAlign=middle;resizable=0;points=[];" parent="1mzf_8XrOfBWv2a91a7L-77" vertex="1" connectable="0">
          <mxGeometry x="0.2741" y="1" relative="1" as="geometry">
            <mxPoint as="offset" />
          </mxGeometry>
        </mxCell>
        <mxCell id="1mzf_8XrOfBWv2a91a7L-86" style="edgeStyle=orthogonalEdgeStyle;rounded=0;orthogonalLoop=1;jettySize=auto;html=1;entryX=0.5;entryY=0;entryDx=0;entryDy=0;" parent="1" source="1mzf_8XrOfBWv2a91a7L-49" target="1mzf_8XrOfBWv2a91a7L-34" edge="1">
          <mxGeometry relative="1" as="geometry" />
        </mxCell>
        <mxCell id="1mzf_8XrOfBWv2a91a7L-87" value="так" style="edgeLabel;html=1;align=center;verticalAlign=middle;resizable=0;points=[];" parent="1mzf_8XrOfBWv2a91a7L-86" vertex="1" connectable="0">
          <mxGeometry x="0.0947" y="-3" relative="1" as="geometry">
            <mxPoint as="offset" />
          </mxGeometry>
        </mxCell>
        <mxCell id="1mzf_8XrOfBWv2a91a7L-49" value="Залишися невідгадані букви?" style="rhombus;whiteSpace=wrap;html=1;" parent="1" vertex="1">
          <mxGeometry x="615" y="270" width="170" height="120" as="geometry" />
        </mxCell>
        <mxCell id="1mzf_8XrOfBWv2a91a7L-66" value="Кінець гри, гравець виграв Друкується загадане слово" style="rounded=1;whiteSpace=wrap;html=1;" parent="1" vertex="1">
          <mxGeometry x="950" y="609" width="150" height="90" as="geometry" />
        </mxCell>
        <mxCell id="1mzf_8XrOfBWv2a91a7L-82" style="edgeStyle=orthogonalEdgeStyle;rounded=0;orthogonalLoop=1;jettySize=auto;html=1;entryX=0.56;entryY=-0.042;entryDx=0;entryDy=0;entryPerimeter=0;" parent="1" source="1mzf_8XrOfBWv2a91a7L-75" target="1mzf_8XrOfBWv2a91a7L-66" edge="1">
          <mxGeometry relative="1" as="geometry" />
        </mxCell>
        <mxCell id="1mzf_8XrOfBWv2a91a7L-83" value="так" style="edgeLabel;html=1;align=center;verticalAlign=middle;resizable=0;points=[];" parent="1mzf_8XrOfBWv2a91a7L-82" vertex="1" connectable="0">
          <mxGeometry x="0.4548" y="2" relative="1" as="geometry">
            <mxPoint as="offset" />
          </mxGeometry>
        </mxCell>
        <mxCell id="1mzf_8XrOfBWv2a91a7L-84" style="edgeStyle=orthogonalEdgeStyle;rounded=0;orthogonalLoop=1;jettySize=auto;html=1;entryX=0.5;entryY=0;entryDx=0;entryDy=0;" parent="1" source="1mzf_8XrOfBWv2a91a7L-75" target="1mzf_8XrOfBWv2a91a7L-40" edge="1">
          <mxGeometry relative="1" as="geometry" />
        </mxCell>
        <mxCell id="1mzf_8XrOfBWv2a91a7L-85" value="ні" style="edgeLabel;html=1;align=center;verticalAlign=middle;resizable=0;points=[];" parent="1mzf_8XrOfBWv2a91a7L-84" vertex="1" connectable="0">
          <mxGeometry x="0.18" y="-3" relative="1" as="geometry">
            <mxPoint as="offset" />
          </mxGeometry>
        </mxCell>
        <mxCell id="1mzf_8XrOfBWv2a91a7L-75" value="Залишились життя?&amp;nbsp;" style="rhombus;whiteSpace=wrap;html=1;rounded=0;" parent="1" vertex="1">
          <mxGeometry x="820" y="425" width="200" height="90" as="geometry" />
        </mxCell>
        <mxCell id="1mzf_8XrOfBWv2a91a7L-96" style="edgeStyle=orthogonalEdgeStyle;rounded=0;orthogonalLoop=1;jettySize=auto;html=1;entryX=0.5;entryY=0;entryDx=0;entryDy=0;" parent="1" source="1mzf_8XrOfBWv2a91a7L-90" target="1mzf_8XrOfBWv2a91a7L-23" edge="1">
          <mxGeometry relative="1" as="geometry" />
        </mxCell>
        <mxCell id="1mzf_8XrOfBWv2a91a7L-97" value="ні" style="edgeLabel;html=1;align=center;verticalAlign=middle;resizable=0;points=[];" parent="1mzf_8XrOfBWv2a91a7L-96" vertex="1" connectable="0">
          <mxGeometry x="0.2274" y="1" relative="1" as="geometry">
            <mxPoint as="offset" />
          </mxGeometry>
        </mxCell>
        <mxCell id="1mzf_8XrOfBWv2a91a7L-107" style="edgeStyle=orthogonalEdgeStyle;rounded=0;orthogonalLoop=1;jettySize=auto;html=1;entryX=0.978;entryY=0.437;entryDx=0;entryDy=0;entryPerimeter=0;" parent="1" source="1mzf_8XrOfBWv2a91a7L-90" target="1mzf_8XrOfBWv2a91a7L-92" edge="1">
          <mxGeometry relative="1" as="geometry" />
        </mxCell>
        <mxCell id="1mzf_8XrOfBWv2a91a7L-108" value="так" style="edgeLabel;html=1;align=center;verticalAlign=middle;resizable=0;points=[];" parent="1mzf_8XrOfBWv2a91a7L-107" vertex="1" connectable="0">
          <mxGeometry x="-0.4257" y="1" relative="1" as="geometry">
            <mxPoint as="offset" />
          </mxGeometry>
        </mxCell>
        <mxCell id="1mzf_8XrOfBWv2a91a7L-90" value="Користувач вже вводив цю букву?&amp;nbsp;" style="rhombus;whiteSpace=wrap;html=1;" parent="1" vertex="1">
          <mxGeometry x="470" y="797.0000000000001" width="160" height="100" as="geometry" />
        </mxCell>
        <mxCell id="1mzf_8XrOfBWv2a91a7L-109" style="edgeStyle=orthogonalEdgeStyle;rounded=0;orthogonalLoop=1;jettySize=auto;html=1;entryX=0;entryY=0.5;entryDx=0;entryDy=0;" parent="1" source="1mzf_8XrOfBWv2a91a7L-92" target="1mzf_8XrOfBWv2a91a7L-133" edge="1">
          <mxGeometry relative="1" as="geometry">
            <mxPoint x="465" y="740" as="targetPoint" />
            <Array as="points">
              <mxPoint x="345" y="710" />
            </Array>
          </mxGeometry>
        </mxCell>
        <mxCell id="1mzf_8XrOfBWv2a91a7L-92" value="Виводиться повідомлення про дублікат букви" style="shape=parallelogram;perimeter=parallelogramPerimeter;whiteSpace=wrap;html=1;fixedSize=1;" parent="1" vertex="1">
          <mxGeometry x="285" y="797" width="120" height="60" as="geometry" />
        </mxCell>
        <mxCell id="1mzf_8XrOfBWv2a91a7L-118" style="edgeStyle=orthogonalEdgeStyle;rounded=0;orthogonalLoop=1;jettySize=auto;html=1;entryX=0.5;entryY=0;entryDx=0;entryDy=0;" parent="1" source="1mzf_8XrOfBWv2a91a7L-116" target="1mzf_8XrOfBWv2a91a7L-117" edge="1">
          <mxGeometry relative="1" as="geometry" />
        </mxCell>
        <mxCell id="1mzf_8XrOfBWv2a91a7L-119" value="так" style="edgeLabel;html=1;align=center;verticalAlign=middle;resizable=0;points=[];" parent="1mzf_8XrOfBWv2a91a7L-118" vertex="1" connectable="0">
          <mxGeometry x="-0.5923" relative="1" as="geometry">
            <mxPoint as="offset" />
          </mxGeometry>
        </mxCell>
        <mxCell id="1mzf_8XrOfBWv2a91a7L-123" style="edgeStyle=orthogonalEdgeStyle;rounded=0;orthogonalLoop=1;jettySize=auto;html=1;entryX=0.5;entryY=1;entryDx=0;entryDy=0;" parent="1" source="1mzf_8XrOfBWv2a91a7L-116" target="1mzf_8XrOfBWv2a91a7L-122" edge="1">
          <mxGeometry relative="1" as="geometry" />
        </mxCell>
        <mxCell id="1mzf_8XrOfBWv2a91a7L-124" value="ні" style="edgeLabel;html=1;align=center;verticalAlign=middle;resizable=0;points=[];" parent="1mzf_8XrOfBWv2a91a7L-123" vertex="1" connectable="0">
          <mxGeometry x="0.0071" y="1" relative="1" as="geometry">
            <mxPoint as="offset" />
          </mxGeometry>
        </mxCell>
        <mxCell id="1mzf_8XrOfBWv2a91a7L-116" value="введено коректні дані?" style="rhombus;whiteSpace=wrap;html=1;" parent="1" vertex="1">
          <mxGeometry x="-50" y="-300" width="160" height="80" as="geometry" />
        </mxCell>
        <mxCell id="1mzf_8XrOfBWv2a91a7L-117" value="продовжити виконання програми" style="rounded=1;whiteSpace=wrap;html=1;" parent="1" vertex="1">
          <mxGeometry x="-30" y="-180" width="120" height="60" as="geometry" />
        </mxCell>
        <mxCell id="1mzf_8XrOfBWv2a91a7L-126" value="" style="edgeStyle=orthogonalEdgeStyle;rounded=0;orthogonalLoop=1;jettySize=auto;html=1;" parent="1" source="1mzf_8XrOfBWv2a91a7L-120" target="1mzf_8XrOfBWv2a91a7L-116" edge="1">
          <mxGeometry relative="1" as="geometry" />
        </mxCell>
        <mxCell id="1mzf_8XrOfBWv2a91a7L-120" value="Ввод даних користувача" style="shape=parallelogram;perimeter=parallelogramPerimeter;whiteSpace=wrap;html=1;fixedSize=1;" parent="1" vertex="1">
          <mxGeometry x="-30" y="-380" width="120" height="60" as="geometry" />
        </mxCell>
        <mxCell id="1mzf_8XrOfBWv2a91a7L-125" style="edgeStyle=orthogonalEdgeStyle;rounded=0;orthogonalLoop=1;jettySize=auto;html=1;entryX=0.93;entryY=0.585;entryDx=0;entryDy=0;entryPerimeter=0;" parent="1" source="1mzf_8XrOfBWv2a91a7L-122" target="1mzf_8XrOfBWv2a91a7L-120" edge="1">
          <mxGeometry relative="1" as="geometry">
            <Array as="points">
              <mxPoint x="140" y="-345" />
              <mxPoint x="140" y="-345" />
            </Array>
          </mxGeometry>
        </mxCell>
        <mxCell id="1mzf_8XrOfBWv2a91a7L-122" value="Виведення повідомлення про помилку" style="shape=parallelogram;perimeter=parallelogramPerimeter;whiteSpace=wrap;html=1;fixedSize=1;" parent="1" vertex="1">
          <mxGeometry x="165" y="-370" width="120" height="60" as="geometry" />
        </mxCell>
        <mxCell id="1mzf_8XrOfBWv2a91a7L-136" value="" style="edgeStyle=orthogonalEdgeStyle;rounded=0;orthogonalLoop=1;jettySize=auto;html=1;" parent="1" source="1mzf_8XrOfBWv2a91a7L-127" target="1mzf_8XrOfBWv2a91a7L-120" edge="1">
          <mxGeometry relative="1" as="geometry" />
        </mxCell>
        <mxCell id="1mzf_8XrOfBWv2a91a7L-127" value="Перевірка вводу" style="ellipse;whiteSpace=wrap;html=1;fillColor=#fff2cc;strokeColor=#d6b656;" parent="1" vertex="1">
          <mxGeometry x="-30" y="-500" width="120" height="80" as="geometry" />
        </mxCell>
        <mxCell id="1mzf_8XrOfBWv2a91a7L-132" style="edgeStyle=orthogonalEdgeStyle;rounded=0;orthogonalLoop=1;jettySize=auto;html=1;entryX=0;entryY=0.5;entryDx=0;entryDy=0;" parent="1" source="1mzf_8XrOfBWv2a91a7L-128" target="1mzf_8XrOfBWv2a91a7L-21" edge="1">
          <mxGeometry relative="1" as="geometry" />
        </mxCell>
        <mxCell id="1mzf_8XrOfBWv2a91a7L-128" value="Перевірка вводу" style="ellipse;whiteSpace=wrap;html=1;fillColor=#fff2cc;strokeColor=#d6b656;" parent="1" vertex="1">
          <mxGeometry x="425" y="160" width="120" height="80" as="geometry" />
        </mxCell>
        <mxCell id="1mzf_8XrOfBWv2a91a7L-135" style="edgeStyle=orthogonalEdgeStyle;rounded=0;orthogonalLoop=1;jettySize=auto;html=1;entryX=0.5;entryY=0;entryDx=0;entryDy=0;" parent="1" source="1mzf_8XrOfBWv2a91a7L-133" target="1mzf_8XrOfBWv2a91a7L-90" edge="1">
          <mxGeometry relative="1" as="geometry" />
        </mxCell>
        <mxCell id="1mzf_8XrOfBWv2a91a7L-133" value="Перевірка вводу" style="ellipse;whiteSpace=wrap;html=1;fillColor=#fff2cc;strokeColor=#d6b656;" parent="1" vertex="1">
          <mxGeometry x="490" y="670" width="120" height="80" as="geometry" />
        </mxCell>
      </root>
    </mxGraphModel>
  </diagram>
</mxfile>
